<svg xmlns="http://www.w3.org/2000/svg" viewBox="0 0 400 300"><defs><radialGradient id="sh" cx="50%" cy="50%" r="50%"><stop offset="0" stop-color="#000" stop-opacity=".35"/><stop offset="1" stop-color="#000" stop-opacity="0"/></radialGradient><linearGradient id="blk" x1="0" y1="0" x2="1" y2="1"><stop offset="0" stop-color="#3a3d44"/><stop offset=".5" stop-color="#1c1e23"/><stop offset="1" stop-color="#111317"/></linearGradient><linearGradient id="red" x1="0" y1="0" x2="1" y2="1"><stop offset="0" stop-color="#c0282c"/><stop offset="1" stop-color="#6e1013"/></linearGradient><linearGradient id="met" x1="0" y1="0" x2="1" y2="1"><stop offset="0" stop-color="#e4e6ea"/><stop offset="1" stop-color="#8d9199"/></linearGradient></defs><ellipse cx="200" cy="270" rx="130" ry="13" fill="url(#sh)"/><rect x="80" y="40" width="240" height="220" rx="8" fill="#1a1c21"/><rect x="150" y="70" width="64" height="64" rx="4" fill="url(#met)"/><rect x="162" y="82" width="40" height="40" fill="#b9bdc4"/><rect x="235" y="60" width="8" height="90" rx="2" fill="url(#red)"/><rect x="249" y="60" width="8" height="90" rx="2" fill="url(#red)"/><rect x="263" y="60" width="8" height="90" rx="2" fill="url(#red)"/><rect x="277" y="60" width="8" height="90" rx="2" fill="url(#red)"/><rect x="100" y="170" width="190" height="10" rx="2" fill="#3d4148"/><rect x="100" y="198" width="190" height="10" rx="2" fill="#3d4148"/><rect x="100" y="226" width="190" height="10" rx="2" fill="#3d4148"/><rect x="95" y="60" width="40" height="80" rx="3" fill="#2a2d33"/><rect x="250" y="168" width="50" height="40" rx="3" fill="#2a2d33"/></svg>