<svg xmlns="http://www.w3.org/2000/svg" viewBox="0 0 400 300"><defs><radialGradient id="sh" cx="50%" cy="50%" r="50%"><stop offset="0" stop-color="#000" stop-opacity=".35"/><stop offset="1" stop-color="#000" stop-opacity="0"/></radialGradient><linearGradient id="blk" x1="0" y1="0" x2="1" y2="1"><stop offset="0" stop-color="#3a3d44"/><stop offset=".5" stop-color="#1c1e23"/><stop offset="1" stop-color="#111317"/></linearGradient><linearGradient id="red" x1="0" y1="0" x2="1" y2="1"><stop offset="0" stop-color="#c0282c"/><stop offset="1" stop-color="#6e1013"/></linearGradient><linearGradient id="met" x1="0" y1="0" x2="1" y2="1"><stop offset="0" stop-color="#e4e6ea"/><stop offset="1" stop-color="#8d9199"/></linearGradient></defs><ellipse cx="200" cy="270" rx="130" ry="13" fill="url(#sh)"/><rect x="40" y="70" width="170" height="190" rx="10" fill="#0b0c0f"/><rect x="40" y="64" width="170" height="190" rx="10" fill="url(#met)"/><circle cx="125" cy="150" r="62" fill="#c3c6cc"/><circle cx="125" cy="150" r="20" fill="#8d9199"/><path d="M125 150 L175 120" stroke="#3d4148" stroke-width="7" stroke-linecap="round"/><rect x="230" y="120" width="140" height="140" rx="8" fill="#0b0c0f"/><rect x="230" y="112" width="140" height="140" rx="8" fill="url(#blk)"/><rect x="246" y="130" width="108" height="46" rx="4" fill="url(#red)"/><rect x="246" y="190" width="108" height="8" rx="2" fill="#3d4148"/><rect x="246" y="206" width="70" height="8" rx="2" fill="#3d4148"/></svg>