<svg xmlns="http://www.w3.org/2000/svg" viewBox="0 0 400 300"><defs><linearGradient id="wh" x1="0" y1="0" x2="1" y2="0"><stop offset="0" stop-color="#f4f5f7"/><stop offset=".5" stop-color="#dfe2e6"/><stop offset="1" stop-color="#b9bec6"/></linearGradient><radialGradient id="sh" cx="50%" cy="50%" r="50%"><stop offset="0" stop-color="#000" stop-opacity=".35"/><stop offset="1" stop-color="#000" stop-opacity="0"/></radialGradient><linearGradient id="blk" x1="0" y1="0" x2="1" y2="0"><stop offset="0" stop-color="#3a3d44"/><stop offset=".15" stop-color="#1c1e23"/><stop offset=".85" stop-color="#111317"/><stop offset="1" stop-color="#2b2e34"/></linearGradient><linearGradient id="glass" x1="0" y1="0" x2="1" y2="1"><stop offset="0" stop-color="#2d3138"/><stop offset=".5" stop-color="#0c0d10"/><stop offset="1" stop-color="#1b1d22"/></linearGradient><linearGradient id="gloss" x1="0" y1="0" x2="1" y2="1"><stop offset="0" stop-color="#fff" stop-opacity=".22"/><stop offset=".45" stop-color="#fff" stop-opacity="0"/></linearGradient></defs><ellipse cx="200" cy="268" rx="130" ry="14" fill="url(#sh)"/><rect x="118" y="22" width="164" height="238" rx="12" fill="url(#wh)"/><rect x="130" y="34" width="140" height="150" rx="6" fill="url(#glass)"/><rect x="142" y="60" width="116" height="30" rx="4" fill="#2a2d33"/><rect x="146" y="64" width="80" height="22" rx="3" fill="#961b1e"/><defs><linearGradient id="f4" x1="0" y1="0" x2="1" y2="1"><stop offset="0" stop-color="#e6e8ec"/><stop offset="1" stop-color="#9aa1ad"/></linearGradient></defs><circle cx="168" cy="128" r="16" fill="#0b0c0f"/><circle cx="168" cy="128" r="13" fill="none" stroke="url(#f4)" stroke-width="5"/><path d="M168 128 L180.5 128.0 L178.6 134.5Z" fill="#23262c"/><path d="M168 128 L176.8 136.8 L170.9 140.1Z" fill="#23262c"/><path d="M168 128 L168.0 140.5 L161.5 138.6Z" fill="#23262c"/><path d="M168 128 L159.2 136.8 L155.9 130.9Z" fill="#23262c"/><path d="M168 128 L155.5 128.0 L157.4 121.5Z" fill="#23262c"/><path d="M168 128 L159.2 119.2 L165.1 115.9Z" fill="#23262c"/><path d="M168 128 L168.0 115.5 L174.5 117.4Z" fill="#23262c"/><path d="M168 128 L176.8 119.2 L180.1 125.1Z" fill="#23262c"/><circle cx="168" cy="128" r="3.2" fill="#3a3d44"/><defs><linearGradient id="f5" x1="0" y1="0" x2="1" y2="1"><stop offset="0" stop-color="#e6e8ec"/><stop offset="1" stop-color="#9aa1ad"/></linearGradient></defs><circle cx="214" cy="128" r="16" fill="#0b0c0f"/><circle cx="214" cy="128" r="13" fill="none" stroke="url(#f5)" stroke-width="5"/><path d="M214 128 L226.5 128.0 L224.6 134.5Z" fill="#23262c"/><path d="M214 128 L222.8 136.8 L216.9 140.1Z" fill="#23262c"/><path d="M214 128 L214.0 140.5 L207.5 138.6Z" fill="#23262c"/><path d="M214 128 L205.2 136.8 L201.9 130.9Z" fill="#23262c"/><path d="M214 128 L201.5 128.0 L203.4 121.5Z" fill="#23262c"/><path d="M214 128 L205.2 119.2 L211.1 115.9Z" fill="#23262c"/><path d="M214 128 L214.0 115.5 L220.5 117.4Z" fill="#23262c"/><path d="M214 128 L222.8 119.2 L226.1 125.1Z" fill="#23262c"/><circle cx="214" cy="128" r="3.2" fill="#3a3d44"/><rect x="130" y="34" width="140" height="150" rx="6" fill="url(#gloss)"/><rect x="136" y="196" width="128" height="3" rx="1.5" fill="#9aa1ad"/><rect x="136" y="203" width="128" height="3" rx="1.5" fill="#9aa1ad"/><rect x="136" y="210" width="128" height="3" rx="1.5" fill="#9aa1ad"/><rect x="136" y="217" width="128" height="3" rx="1.5" fill="#9aa1ad"/><rect x="136" y="224" width="128" height="3" rx="1.5" fill="#9aa1ad"/><rect x="136" y="231" width="128" height="3" rx="1.5" fill="#9aa1ad"/><rect x="136" y="238" width="128" height="3" rx="1.5" fill="#9aa1ad"/><rect x="128" y="262" width="22" height="6" rx="2" fill="#8a919c"/><rect x="250" y="262" width="22" height="6" rx="2" fill="#8a919c"/></svg>